<svg width="799" height="2228" xmlns="http://www.w3.org/2000/svg" xmlns:xlink="http://www.w3.org/1999/xlink" xml:space="preserve" overflow="hidden"><g transform="translate(-308 -393)"><path d="M311.5 1130.5C311.5 1057.6 370.599 998.5 443.502 998.5L971.498 998.5C1044.4 998.5 1103.5 1057.6 1103.5 1130.5L1103.5 1911.5C1103.5 1984.4 1044.4 2043.5 971.498 2043.5L443.502 2043.5C370.599 2043.5 311.5 1984.4 311.5 1911.5Z" stroke="#747474" stroke-width="6.875" stroke-miterlimit="8" fill="#F6C6AD" fill-rule="evenodd"/><text fill="#C00000" font-family="Times New Roman,Times New Roman_MSFontService,sans-serif" font-weight="400" font-size="55" transform="matrix(6.12323e-17 -1 1 6.12323e-17 404.412 1657)">Transformer</text><path d="M451.5 2347.67C451.5 2336.53 460.529 2327.5 471.667 2327.5L926.333 2327.5C937.471 2327.5 946.5 2336.53 946.5 2347.67L946.5 2428.33C946.5 2439.47 937.471 2448.5 926.333 2448.5L471.667 2448.5C460.529 2448.5 451.5 2439.47 451.5 2428.33Z" stroke="#042433" stroke-width="6.875" stroke-miterlimit="8" fill="none" fill-rule="evenodd"/><text font-family="Times New Roman,Times New Roman_MSFontService,sans-serif" font-weight="400" font-size="55" transform="matrix(1 0 0 1 588.97 2409)">Tokenizer</text><path d="M451.5 2121.67C451.5 2110.53 460.529 2101.5 471.667 2101.5L926.333 2101.5C937.471 2101.5 946.5 2110.53 946.5 2121.67L946.5 2202.33C946.5 2213.47 937.471 2222.5 926.333 2222.5L471.667 2222.5C460.529 2222.5 451.5 2213.47 451.5 2202.33Z" stroke="#042433" stroke-width="6.875" stroke-miterlimit="8" fill="none" fill-rule="evenodd"/><text font-family="Times New Roman,Times New Roman_MSFontService,sans-serif" font-weight="400" font-size="55" transform="matrix(1 0 0 1 571.713 2183)">Embedding</text><path d="M454.5 1830.67C454.5 1819.53 463.529 1810.5 474.667 1810.5L929.333 1810.5C940.471 1810.5 949.5 1819.53 949.5 1830.67L949.5 1911.33C949.5 1922.47 940.471 1931.5 929.333 1931.5L474.667 1931.5C463.529 1931.5 454.5 1922.47 454.5 1911.33Z" stroke="#042433" stroke-width="6.875" stroke-miterlimit="8" fill="#D9F2D0" fill-rule="evenodd"/><text font-family="Times New Roman,Times New Roman_MSFontService,sans-serif" font-weight="400" font-size="55" transform="matrix(1 0 0 1 472.095 1892)">Multi head Attention</text><path d="M454.5 1315.67C454.5 1304.53 463.529 1295.5 474.667 1295.5L929.333 1295.5C940.471 1295.5 949.5 1304.53 949.5 1315.67L949.5 1396.33C949.5 1407.47 940.471 1416.5 929.333 1416.5L474.667 1416.5C463.529 1416.5 454.5 1407.47 454.5 1396.33Z" stroke="#042433" stroke-width="6.875" stroke-miterlimit="8" fill="#CAEEFB" fill-rule="evenodd"/><text font-family="Times New Roman,Times New Roman_MSFontService,sans-serif" font-weight="400" font-size="55" transform="matrix(1 0 0 1 554.629 1378)">FeedForward</text><path d="M454.5 1098.67C454.5 1087.53 463.529 1078.5 474.667 1078.5L929.333 1078.5C940.471 1078.5 949.5 1087.53 949.5 1098.67L949.5 1179.33C949.5 1190.47 940.471 1199.5 929.333 1199.5L474.667 1199.5C463.529 1199.5 454.5 1190.47 454.5 1179.33Z" stroke="#042433" stroke-width="6.875" stroke-miterlimit="8" fill="#FFFFFF" fill-rule="evenodd"/><text font-family="Times New Roman,Times New Roman_MSFontService,sans-serif" font-weight="400" font-size="55" transform="matrix(1 0 0 1 502.7 1160)">Add &amp; Normalize</text><path d="M454.5 807.667C454.5 796.529 463.529 787.5 474.667 787.5L929.333 787.5C940.471 787.5 949.5 796.529 949.5 807.667L949.5 888.333C949.5 899.471 940.471 908.5 929.333 908.5L474.667 908.5C463.529 908.5 454.5 899.471 454.5 888.333Z" stroke="#042433" stroke-width="6.875" stroke-miterlimit="8" fill="none" fill-rule="evenodd"/><text font-family="Times New Roman,Times New Roman_MSFontService,sans-serif" font-weight="400" font-size="55" transform="matrix(1 0 0 1 558.513 869)">Linear Layer</text><path d="M454.5 581.667C454.5 570.529 463.529 561.5 474.667 561.5L929.333 561.5C940.471 561.5 949.5 570.529 949.5 581.667L949.5 662.333C949.5 673.471 940.471 682.5 929.333 682.5L474.667 682.5C463.529 682.5 454.5 673.471 454.5 662.333Z" stroke="#042433" stroke-width="6.875" stroke-miterlimit="8" fill="none" fill-rule="evenodd"/><text font-family="Times New Roman,Times New Roman_MSFontService,sans-serif" font-weight="400" font-size="55" transform="matrix(1 0 0 1 608.059 643)">Softmax</text><path d="M454.5 1607.67C454.5 1596.53 463.529 1587.5 474.667 1587.5L929.333 1587.5C940.471 1587.5 949.5 1596.53 949.5 1607.67L949.5 1688.33C949.5 1699.47 940.471 1708.5 929.333 1708.5L474.667 1708.5C463.529 1708.5 454.5 1699.47 454.5 1688.33Z" stroke="#042433" stroke-width="6.875" stroke-miterlimit="8" fill="#FFFFFF" fill-rule="evenodd"/><text font-family="Times New Roman,Times New Roman_MSFontService,sans-serif" font-weight="400" font-size="55" transform="matrix(1 0 0 1 502.7 1669)">Add &amp; Normalize</text><text font-family="Times New Roman,Times New Roman_MSFontService,sans-serif" font-weight="400" font-size="55" transform="matrix(1 0 0 1 533.5 2577)">Input x</text><path d="M3.4375-1.2531e-05 3.43778 76.0833-3.43722 76.0833-3.4375 1.2531e-05ZM13.7503 71.4999 0.000360892 99-13.7497 71.5001Z" fill="#156082" transform="matrix(1 0 0 -1 707.5 781.5)"/><path d="M3.4375-1.2531e-05 3.43778 76.0833-3.43722 76.0833-3.4375 1.2531e-05ZM13.7503 71.4999 0.000360892 99-13.7497 71.5001Z" fill="#156082" transform="matrix(1 0 0 -1 707.5 556.5)"/><text font-family="Times New Roman,Times New Roman_MSFontService,sans-serif" font-weight="400" font-size="55" transform="matrix(1 0 0 1 500.5 465)">p_attack   p_normal</text><path d="M3.4375-7.39534e-06 3.43781 144.833-3.43719 144.833-3.4375 7.39534e-06ZM13.7503 140.25 0.000360892 167.75-13.7497 140.25Z" fill="#156082" transform="matrix(1 0 0 -1 707.5 1076.25)"/><path d="M3.4375-1.2531e-05 3.43778 76.0833-3.43722 76.0833-3.4375 1.2531e-05ZM13.7503 71.4999 0.000360892 99-13.7497 71.5001Z" fill="#156082" transform="matrix(1 0 0 -1 707.5 1295.5)"/><path d="M3.4375-7.39534e-06 3.43781 144.833-3.43719 144.833-3.4375 7.39534e-06ZM13.7503 140.25 0.000360892 167.75-13.7497 140.25Z" fill="#156082" transform="matrix(1 0 0 -1 707.5 1582.25)"/><path d="M3.4375-1.2531e-05 3.43778 76.0833-3.43722 76.0833-3.4375 1.2531e-05ZM13.7503 71.4999 0.000360892 99-13.7497 71.5001Z" fill="#156082" transform="matrix(1 0 0 -1 707.5 1804.5)"/><path d="M3.4375-7.39534e-06 3.43781 144.833-3.43719 144.833-3.4375 7.39534e-06ZM13.7503 140.25 0.000360892 167.75-13.7497 140.25Z" fill="#156082" transform="matrix(1 0 0 -1 707.5 2096.25)"/><path d="M3.4375-9.39824e-06 3.4378 109.083-3.4372 109.083-3.4375 9.39824e-06ZM13.7503 104.5 0.000360892 132-13.7497 104.5Z" fill="#156082" transform="matrix(1 0 0 -1 707.5 2582.5)"/><path d="M3.4375-1.2531e-05 3.43778 76.0833-3.43722 76.0833-3.4375 1.2531e-05ZM13.7503 71.4999 0.000360892 99-13.7497 71.5001Z" fill="#156082" transform="matrix(1 0 0 -1 707.5 2321.5)"/><path d="M0-3.4375 322.437-3.4375 322.437 338.938 264.917 338.938 264.917 332.062 319 332.062 315.562 335.5 315.562 0 319 3.4375 0 3.4375ZM269.5 349.25 242 335.5 269.5 321.75Z" fill="#156082" transform="matrix(1 0 0 -1 707.5 1981)"/><path d="M0-3.4375 322.437-3.4375 322.437 338.938 264.917 338.938 264.917 332.062 319 332.062 315.562 335.5 315.562 0 319 3.4375 0 3.4375ZM269.5 349.25 242 335.5 269.5 321.75Z" fill="#156082" transform="matrix(1 0 0 -1 710.5 1472)"/></g></svg>